<svg xmlns="http://www.w3.org/2000/svg" viewBox="0 0 115 115"><defs><style>.cls-1{fill:#add8e6;}.cls-2{fill:#fff;}</style></defs><title>svg_relation</title><g id="Calque_2" data-name="Calque 2"><g id="Calque_2-2" data-name="Calque 2"><rect class="cls-1" x="2" y="2" width="111" height="111"/></g><g id="Calque_1-2" data-name="Calque 1"><path class="cls-2" d="M0,0V115H115V0ZM13.16,72c-.81-1-.65-3.41-.15-4.58a2.83,2.83,0,0,1,1.61-1.61,2.56,2.56,0,0,1,2.35.36,19.57,19.57,0,0,1,3.3,2.65,5.62,5.62,0,0,1,1,1.91,2.86,2.86,0,0,0,.15.4l.09.19v.22A4.8,4.8,0,0,1,20,75.16a2.23,2.23,0,0,1-1.42.55,2.12,2.12,0,0,1-.87-.2A12.78,12.78,0,0,1,13.16,72Zm6.51,13.55c-2.28-2.19-2.47-3.81-.79-6.66l.78-1.34c1-1.64,1.95-3.33,3-5a3.55,3.55,0,0,1,4.81-1.51c1.68.74,2.57,2.43,2.74,5.17v.19l-.06.19c-.05.14-.09.31-.15.5A7.93,7.93,0,0,1,29.32,79c-1.33,2.48-2.72,4.9-4,7.17-.67,1.15-1.38,1.5-2,1.5A2.25,2.25,0,0,1,22,87.2c-.25-.18-.51-.34-.76-.5A9.47,9.47,0,0,1,19.67,85.56Zm11.18,13.1a2.89,2.89,0,0,1-2.24,1.23,2.24,2.24,0,0,1-.69,0,9.2,9.2,0,0,1-3.29-1.59c-3.13-2.2-3.44-3.78-1.47-7.35l1.47-2.68c2.18-4,4.43-8,6.76-12a9.5,9.5,0,0,1,2.35-2.42c.35-.29.71-.57,1-.88l.25-.24.33,0a6.09,6.09,0,0,1,5,8.82C37.38,87.3,34.14,92.94,31,98.4Zm10.53,1.16a2.64,2.64,0,0,1-2,1,1.4,1.4,0,0,1-.79-.22,19.09,19.09,0,0,1-4.17-3.8c-.74-.93-.36-3.11.09-4a64,64,0,0,1,4.31-7.18,7.1,7.1,0,0,1,2.08-1.8c.3-.2.6-.39.89-.61L42,83.1l.25,0a5.33,5.33,0,0,1,4.26,3.31,6,6,0,0,1-.16,5A89.92,89.92,0,0,1,41.38,99.82ZM93.74,71.26c-1.13,3.3-5.08,6-7.46,5A3.46,3.46,0,0,1,85,75.35Q78.6,67.79,72.21,60.18s-1.11-1.58-1.45-.93.32,1.47.93,2.2l3.08,3.67c3,3.58,6.1,7.29,9.18,10.89.87,1,.07,3.09-.6,4.28-1.09,1.92-3.68,5.6-6.7,5.18A4.41,4.41,0,0,1,74.08,84c-2.11-2.51-4.21-5.1-6.25-7.61-1.29-1.58-2.58-3.17-3.88-4.75-.37-.45-.9-1.23-1.45-1.23s.06,1.09.06,1.09l3.31,4.09L72,83.1c1.35,1.65.64,3.55-.67,5.33-1.92,2.62-5.18,4.91-7.65,4.11a3.18,3.18,0,0,1-1.39-1q-2.07-2.51-4.12-5-1.66-2.05-3.35-4.1s.07.08-.19-.11-.77-.16-.82.09c-.09.48.41,1,.84,1.56,1.85,2.19,3.72,4.36,5.58,6.53l2.11,2.45-.51.49c-1.19,2.48-3.28,4.46-4.88,5a4,4,0,0,1-1.24.19,6,6,0,0,1-3.46-1.3c-1.21-.86-2.37-1.87-3.49-2.84-.51-.44-1-.89-1.54-1.32l-.27-.23.1-.37c1-4,.23-7.08-2.34-9.41a4.2,4.2,0,0,0-1.76-1c-1.19-.27-1.32-1.14-1.29-2a8,8,0,0,0-3-6.62,5.4,5.4,0,0,0-6.51-.17l-1,.68-.23-.37C28.66,70,26,69,22.94,70.37l-.24.11-.2-.2c-.44-.43-.87-.85-1.28-1.27-.9-.89-1.74-1.73-2.62-2.47a5.3,5.3,0,0,0-5.54-.87,1.58,1.58,0,0,1-1.31,0c-2-1.3-4-2.63-6.06-4L3.62,60.26l14.6-35.58.38.2,1.51.76c1.2.59,2.32,1.15,3.45,1.78a2.25,2.25,0,0,0,2.7-.15q3.9-2.94,7.79-5.93l.21-.16c1.82-1.4,3.7-2.86,6-3.22a6.25,6.25,0,0,1,1.32,0l.88,0h1.4l-1.15,1c-3.46,3-5,7.24-6.45,11.38-.39,1.09-.79,2.22-1.22,3.3a10.37,10.37,0,0,0,.27,8,8,8,0,0,0,6.26,4.85C45,46.91,47.49,45.08,49,41c.12-.32.25-.63.38-1,.25-.61.49-1.2.68-1.81a6.13,6.13,0,0,1,2.59-3.62A1.91,1.91,0,0,1,55,34.54q6.62,3.87,13.25,7.7l3.24,1.88.56.34a8.79,8.79,0,0,0,1.37.74c3.6,1.42,6.14,4.56,8.59,7.6l.86,1.06q2.85,3.49,5.72,7,2.18,2.63,4.33,5.27A5,5,0,0,1,93.74,71.26Zm14.4-3.72-1.52.77c-1.4.71-2.85,1.45-4.29,2.07a.87.87,0,0,1-.32.06,42.08,42.08,0,0,1-6.91-3.86Q92,62.38,89,58.15l-6.84-9c-3.83-4.41-9.06-5.43-13.66-8.44s-5.36-3.17-9.81-6.11a11.61,11.61,0,0,0-2.79-1.49c-.62-.26-1.91-.71-2.52-.4-.81.42-1.46.36-2.19,1.06a5,5,0,0,0-1.44,1.72c-.48,1.28-.93,2.59-1.37,3.9-.37,1.08-.73,2.15-1.12,3.21-1.32,3.64-5.48,3.84-8.11,2.07-2.41-1.62-4.73-5.5-3.6-8.83.41-1.21.83-2.41,1.26-3.62.57-1.62,1.14-3.24,1.68-4.89,1.32-4.08,3.13-6.94,5.51-8.74,1.22-.93,2.44-1.89,3.66-2.84,1.71-1.34,4.86-2.44,6.63-3.73a4.61,4.61,0,0,1,5.27-.4q5.16,2.79,10.33,5.53t10.6,5.68a3.46,3.46,0,0,0,3.4.26C86.26,22,88.66,21,91.2,20l3-1.23.46-.18,13.93,48.68Z"/></g></g></svg>