<svg xmlns="http://www.w3.org/2000/svg" viewBox="0 0 115 115"><defs><style>.cls-1{fill:#add8e6;}.cls-2{fill:#fff;}</style></defs><title>svg_notes</title><g id="Calque_2" data-name="Calque 2"><g id="Calque_2-2" data-name="Calque 2"><rect class="cls-1" width="115" height="115"/></g><g id="Calque_1-2" data-name="Calque 1"><path class="cls-2" d="M0,0V115H115V0ZM110.4,60.81c0,1.67-.89,3-2,3s-2-1.36-2-3a3.12,3.12,0,0,1,1.44-2.91V48.06L84,59.87V60L57.2,73.09,29.49,59.56h0l-27.56-14A3,3,0,0,1,.63,42.81a3,3,0,0,1,1.29-2.73L56.08,12.5a1.29,1.29,0,0,1,1.18,0l55.52,27.68a3,3,0,0,1,1.29,2.73,3,3,0,0,1-1.3,2.72l-3.65,1.81V58A3.24,3.24,0,0,1,110.4,60.81ZM29.75,61,57,74.23a.47.47,0,0,0,.17,0l.17,0L84,61.27V83a3.82,3.82,0,0,1-.43,1.82C77.93,95.37,68,101.68,57.1,101.68c-11.92,0-21.75-6-27-16.5a3.93,3.93,0,0,1-.38-1.74Z"/></g></g></svg>