<svg xmlns="http://www.w3.org/2000/svg" viewBox="0 0 115 115"><defs><style>.cls-1{fill:#add8e6;}.cls-2{fill:#fff;}</style></defs><title>svg_argent</title><g id="Calque_2" data-name="Calque 2"><g id="Calque_2-2" data-name="Calque 2"><rect class="cls-1" width="115" height="115"/></g><g id="Calque_1-2" data-name="Calque 1"><path class="cls-2" d="M0,0V115H115V0ZM47.14,77.07c3.32,1.8,7.74,2.5,13,2.5H91.65V95.32H72.22v7.47H61.12V95.32h-1c-1.46,0-2.88-.06-4.26-.16l.19,0v7.59H45v-9.7h0a33.1,33.1,0,0,1-11.26-6.2A26.79,26.79,0,0,1,26.27,76.8a36,36,0,0,1-2.35-12.86V54c.14-9.67,3.87-18.1,10.78-24A32.31,32.31,0,0,1,45,24L45,24V13.47H56.06v8.35q.78,0,1.59,0c1.17,0,2.33.06,3.5.16h0V13.47h11.1V24.66h0A31.37,31.37,0,0,1,81,30.08c6.78,6,10.65,14.38,10.65,24.46V70.72H40.78A13,13,0,0,0,47.14,77.07Z"/><path class="cls-2" d="M57.65,37.55c-8.3,0-18,4.42-18,17v.56H75.89v-.56C75.89,44.46,68.29,37.55,57.65,37.55Z"/></g></g></svg>